<svg width="321" height="185" viewBox="0 0 321 185" fill="none" xmlns="http://www.w3.org/2000/svg">
<path d="M17.2617 8.25635L28.9243 49.3867L40.4624 8.25635H32.9917V0.453613H61.7124V8.25635H54.3247L65.7383 49.3867L77.4424 8.25635H70.0547V0.453613H93.0063V8.25635H85.7847L69.9717 63.6641H61.1313L47.02 13.8594L32.9917 63.6641H24.2344L8.25537 8.25635H0.867676V0.453613H24.7739V8.25635H17.2617ZM126.625 34.7773V55.3633H133.929V63H119.071V57.646C114.92 61.7134 110.3 63.7471 105.208 63.7471C102.525 63.7471 100.062 63.1245 97.8208 61.8794C95.6073 60.6343 93.8226 58.9741 92.4668 56.8989C91.1387 54.7961 90.4746 52.4718 90.4746 49.9263C90.4746 47.187 91.2078 44.7521 92.6743 42.6216C94.1685 40.4634 96.1745 38.8032 98.6924 37.6411C101.21 36.479 103.742 35.8979 106.288 35.8979C110.549 35.8979 114.519 37.1431 118.199 39.6333V34.9434C118.199 31.54 117.48 29.1051 116.041 27.6387C114.602 26.1722 112.236 25.439 108.944 25.439C106.62 25.439 104.669 25.8678 103.092 26.7256C101.542 27.5557 100.256 28.8285 99.2319 30.5439L91.0142 28.5103C92.868 25.0516 95.3721 22.4784 98.5264 20.7905C101.681 19.075 105.43 18.2173 109.774 18.2173C115.612 18.2173 119.873 19.5454 122.557 22.2017C125.269 24.8579 126.625 29.0498 126.625 34.7773ZM106.371 57.1479C110.576 57.1479 114.519 55.391 118.199 51.877V46.772C114.464 43.8667 110.729 42.4141 106.993 42.4141C104.724 42.4141 102.76 43.1335 101.1 44.5723C99.4671 45.9834 98.6509 47.7681 98.6509 49.9263C98.6509 52.0015 99.3703 53.7308 100.809 55.1143C102.248 56.4701 104.102 57.1479 106.371 57.1479ZM153.561 27.0576L163.023 51.7109L172.196 27.0576H166.385V19.3794H187.22V27.0576H180.787L159.247 82.5483H144.72V75.0776H153.312L158.5 62.2529L144.222 27.0576H136.917V19.3794H158.749V27.0576H153.561ZM214.862 21.2471V19.3794H222.333V33.8643H214.862V31.208C212.372 27.6387 208.968 25.854 204.652 25.854C202.383 25.854 200.529 26.3521 199.09 27.3481C197.652 28.3442 196.932 29.6309 196.932 31.208C196.932 32.6191 197.472 33.7259 198.551 34.5283C199.658 35.3307 202.12 36.0363 205.938 36.645L211.708 37.7656C220.313 39.3428 224.615 43.5623 224.615 50.4243C224.615 54.4364 223.052 57.6598 219.925 60.0947C216.826 62.5296 212.704 63.7471 207.557 63.7471C205.51 63.7471 203.49 63.4565 201.498 62.8755C199.533 62.2668 197.887 61.5197 196.559 60.6343V63H188.922V48.0586H196.559V49.5527C196.974 51.6556 198.136 53.3434 200.045 54.6162C201.982 55.889 204.223 56.5254 206.769 56.5254C209.563 56.5254 211.763 56.0412 213.368 55.0728C214.972 54.0767 215.775 52.6102 215.775 50.6733C215.775 49.2622 215.139 48.2108 213.866 47.519C212.593 46.7996 210.034 46.0664 206.188 45.3193L201.747 44.3647C197.347 43.4793 194.124 41.9575 192.076 39.7993C190.029 37.6411 189.005 34.888 189.005 31.54C189.005 28.8285 189.752 26.5181 191.246 24.6089C192.768 22.672 194.705 21.2194 197.057 20.251C199.409 19.2826 201.83 18.7983 204.32 18.7983C208.498 18.7983 212.012 19.6146 214.862 21.2471Z" fill="black"/>
<path d="M56.8149 109.343V102.454H64.7837V122.998H56.8149C54.9888 118.986 52.0973 115.776 48.1406 113.369C44.2116 110.962 40.075 109.758 35.731 109.758C31.4146 109.758 27.5685 110.782 24.1929 112.83C20.8172 114.849 18.1886 117.644 16.3071 121.213C14.4533 124.783 13.5264 128.836 13.5264 133.374C13.5264 138.133 14.5086 142.353 16.4731 146.033C18.4377 149.713 21.1631 152.576 24.6494 154.624C28.1634 156.672 32.1616 157.695 36.644 157.695C40.0474 157.695 43.2017 157.073 46.1069 155.828C49.0399 154.583 51.4609 152.812 53.3701 150.515C55.307 148.219 56.5106 145.59 56.981 142.629H45.4844V134.744H68.27V136.777C68.27 142.726 66.9142 147.914 64.2026 152.341C61.491 156.768 57.7419 160.158 52.9551 162.51C48.196 164.862 42.842 166.038 36.8931 166.038C30.1141 166.038 24.1652 164.682 19.0464 161.97C13.9552 159.231 10.04 155.413 7.30078 150.515C4.58919 145.618 3.2334 139.932 3.2334 133.457C3.2334 127.287 4.58919 121.767 7.30078 116.897C10.04 112.027 13.8031 108.236 18.5898 105.525C23.3766 102.786 28.7998 101.416 34.8594 101.416C43.4368 101.416 50.7554 104.058 56.8149 109.343ZM112.762 136.777V157.363H120.067V165H105.208V159.646C101.058 163.713 96.4373 165.747 91.3462 165.747C88.6623 165.747 86.1997 165.125 83.9585 163.879C81.745 162.634 79.9603 160.974 78.6045 158.899C77.2764 156.796 76.6123 154.472 76.6123 151.926C76.6123 149.187 77.3455 146.752 78.812 144.622C80.3062 142.463 82.3122 140.803 84.8301 139.641C87.348 138.479 89.8797 137.898 92.4253 137.898C96.6864 137.898 100.657 139.143 104.337 141.633V136.943C104.337 133.54 103.618 131.105 102.179 129.639C100.74 128.172 98.3742 127.439 95.0815 127.439C92.7573 127.439 90.8066 127.868 89.2295 128.726C87.68 129.556 86.3934 130.828 85.3696 132.544L77.1519 130.51C79.0057 127.052 81.5098 124.478 84.6641 122.791C87.8184 121.075 91.5675 120.217 95.9116 120.217C101.75 120.217 106.011 121.545 108.695 124.202C111.406 126.858 112.762 131.05 112.762 136.777ZM92.5083 159.148C96.714 159.148 100.657 157.391 104.337 153.877V148.772C100.602 145.867 96.8662 144.414 93.1309 144.414C90.862 144.414 88.8975 145.133 87.2373 146.572C85.6048 147.983 84.7886 149.768 84.7886 151.926C84.7886 154.001 85.508 155.731 86.9468 157.114C88.3856 158.47 90.2394 159.148 92.5083 159.148ZM146.256 157.363V165H123.304V157.363H131.024V110.007H123.304V102.454H139.615V157.363H146.256ZM173.565 157.363V165H150.614V157.363H158.333V110.007H150.614V102.454H166.925V157.363H173.565ZM225.611 145.369H189.046C189.572 149.547 191.191 152.853 193.902 155.288C196.614 157.695 199.934 158.899 203.863 158.899C206.741 158.899 209.411 158.304 211.874 157.114C214.336 155.924 216.397 154.098 218.058 151.636L225.611 155.039C223.232 158.747 220.105 161.555 216.231 163.464C212.385 165.346 208.194 166.287 203.656 166.287C198.952 166.287 194.774 165.304 191.122 163.34C187.469 161.375 184.619 158.636 182.572 155.122C180.552 151.608 179.542 147.651 179.542 143.252C179.542 138.88 180.538 134.937 182.53 131.423C184.55 127.909 187.303 125.17 190.79 123.206C194.276 121.213 198.122 120.217 202.328 120.217C206.921 120.217 210.919 121.241 214.322 123.289C217.753 125.308 220.451 128.214 222.416 132.004C224.38 135.767 225.445 140.222 225.611 145.369ZM202.494 127.356C199.256 127.356 196.42 128.449 193.985 130.635C191.55 132.793 189.987 135.657 189.295 139.226H216.605C215.803 135.657 214.101 132.793 211.5 130.635C208.899 128.449 205.897 127.356 202.494 127.356ZM247.982 147.485V157.363H257.486V165H230.716V157.363H239.474V129.058H230.716V121.379H246.28V131.257C248.023 127.356 250.182 124.644 252.755 123.123C255.356 121.573 259.063 120.798 263.878 120.798H265.829V129.473H263.961C259.312 129.473 255.854 130.081 253.585 131.299C251.316 132.516 249.808 134.356 249.061 136.819C248.342 139.281 247.982 142.837 247.982 147.485ZM287.12 129.058L296.583 153.711L305.755 129.058H299.945V121.379H320.78V129.058H314.347L292.806 184.548H278.28V177.078H286.871L292.059 164.253L277.782 129.058H270.477V121.379H292.308V129.058H287.12Z" fill="#2FC4B2"/>
</svg>
